<mxfile host="app.diagrams.net" modified="2021-11-30T17:26:58.815Z" agent="5.0 (Windows NT 10.0; Win64; x64) AppleWebKit/537.36 (KHTML, like Gecko) Chrome/96.0.4664.45 Safari/537.36" etag="g2Gs-3NULNZPjLBtdVaZ" version="15.8.7" type="github">
  <diagram id="90ORudiwhD_FrLHy6--1" name="Page-1">
    <mxGraphModel dx="1108" dy="450" grid="1" gridSize="10" guides="1" tooltips="1" connect="1" arrows="1" fold="1" page="1" pageScale="1" pageWidth="827" pageHeight="1169" math="0" shadow="0">
      <root>
        <mxCell id="0" />
        <mxCell id="1" parent="0" />
        <mxCell id="E2FyE6VZy2K_bB3SCXtz-3" value="" style="edgeStyle=orthogonalEdgeStyle;rounded=0;orthogonalLoop=1;jettySize=auto;html=1;" edge="1" parent="1" source="E2FyE6VZy2K_bB3SCXtz-1" target="E2FyE6VZy2K_bB3SCXtz-2">
          <mxGeometry relative="1" as="geometry" />
        </mxCell>
        <mxCell id="E2FyE6VZy2K_bB3SCXtz-1" value="STAND-BY" style="rounded=1;whiteSpace=wrap;html=1;" vertex="1" parent="1">
          <mxGeometry x="354" y="50" width="120" height="60" as="geometry" />
        </mxCell>
        <mxCell id="E2FyE6VZy2K_bB3SCXtz-56" value="" style="edgeStyle=orthogonalEdgeStyle;rounded=0;orthogonalLoop=1;jettySize=auto;html=1;" edge="1" parent="1" source="E2FyE6VZy2K_bB3SCXtz-2" target="E2FyE6VZy2K_bB3SCXtz-54">
          <mxGeometry relative="1" as="geometry" />
        </mxCell>
        <mxCell id="E2FyE6VZy2K_bB3SCXtz-58" value="" style="edgeStyle=orthogonalEdgeStyle;rounded=0;orthogonalLoop=1;jettySize=auto;html=1;" edge="1" parent="1" source="E2FyE6VZy2K_bB3SCXtz-2" target="E2FyE6VZy2K_bB3SCXtz-21">
          <mxGeometry relative="1" as="geometry" />
        </mxCell>
        <mxCell id="E2FyE6VZy2K_bB3SCXtz-2" value="Is the tank full?" style="rhombus;whiteSpace=wrap;html=1;" vertex="1" parent="1">
          <mxGeometry x="361" y="140" width="106" height="100" as="geometry" />
        </mxCell>
        <mxCell id="E2FyE6VZy2K_bB3SCXtz-64" value="" style="edgeStyle=orthogonalEdgeStyle;rounded=0;orthogonalLoop=1;jettySize=auto;html=1;" edge="1" parent="1" source="E2FyE6VZy2K_bB3SCXtz-21" target="E2FyE6VZy2K_bB3SCXtz-62">
          <mxGeometry relative="1" as="geometry" />
        </mxCell>
        <mxCell id="E2FyE6VZy2K_bB3SCXtz-66" value="" style="edgeStyle=orthogonalEdgeStyle;rounded=0;orthogonalLoop=1;jettySize=auto;html=1;" edge="1" parent="1" source="E2FyE6VZy2K_bB3SCXtz-21" target="E2FyE6VZy2K_bB3SCXtz-50">
          <mxGeometry relative="1" as="geometry" />
        </mxCell>
        <mxCell id="E2FyE6VZy2K_bB3SCXtz-21" value="Is the tank empty?" style="rhombus;whiteSpace=wrap;html=1;" vertex="1" parent="1">
          <mxGeometry x="366" y="340" width="96" height="90" as="geometry" />
        </mxCell>
        <mxCell id="E2FyE6VZy2K_bB3SCXtz-23" value="Yes" style="text;html=1;align=center;verticalAlign=middle;resizable=0;points=[];autosize=1;strokeColor=none;fillColor=none;" vertex="1" parent="1">
          <mxGeometry x="462" y="355" width="40" height="20" as="geometry" />
        </mxCell>
        <mxCell id="E2FyE6VZy2K_bB3SCXtz-68" value="" style="edgeStyle=orthogonalEdgeStyle;rounded=0;orthogonalLoop=1;jettySize=auto;html=1;" edge="1" parent="1" source="E2FyE6VZy2K_bB3SCXtz-50" target="E2FyE6VZy2K_bB3SCXtz-52">
          <mxGeometry relative="1" as="geometry" />
        </mxCell>
        <mxCell id="E2FyE6VZy2K_bB3SCXtz-73" value="" style="edgeStyle=orthogonalEdgeStyle;rounded=0;orthogonalLoop=1;jettySize=auto;html=1;" edge="1" parent="1" source="E2FyE6VZy2K_bB3SCXtz-50" target="E2FyE6VZy2K_bB3SCXtz-72">
          <mxGeometry relative="1" as="geometry" />
        </mxCell>
        <mxCell id="E2FyE6VZy2K_bB3SCXtz-50" value="Is it raining?" style="rhombus;whiteSpace=wrap;html=1;" vertex="1" parent="1">
          <mxGeometry x="366" y="550" width="96" height="90" as="geometry" />
        </mxCell>
        <mxCell id="E2FyE6VZy2K_bB3SCXtz-74" style="edgeStyle=orthogonalEdgeStyle;rounded=0;orthogonalLoop=1;jettySize=auto;html=1;exitX=0.5;exitY=1;exitDx=0;exitDy=0;entryX=0.5;entryY=0;entryDx=0;entryDy=0;" edge="1" parent="1" source="E2FyE6VZy2K_bB3SCXtz-52" target="E2FyE6VZy2K_bB3SCXtz-72">
          <mxGeometry relative="1" as="geometry" />
        </mxCell>
        <mxCell id="E2FyE6VZy2K_bB3SCXtz-52" value="Open the valve 50%" style="whiteSpace=wrap;html=1;" vertex="1" parent="1">
          <mxGeometry x="510" y="565" width="120" height="60" as="geometry" />
        </mxCell>
        <mxCell id="E2FyE6VZy2K_bB3SCXtz-57" value="" style="edgeStyle=orthogonalEdgeStyle;rounded=0;orthogonalLoop=1;jettySize=auto;html=1;" edge="1" parent="1" source="E2FyE6VZy2K_bB3SCXtz-54" target="E2FyE6VZy2K_bB3SCXtz-55">
          <mxGeometry relative="1" as="geometry" />
        </mxCell>
        <mxCell id="E2FyE6VZy2K_bB3SCXtz-54" value="Open valve" style="rounded=0;whiteSpace=wrap;html=1;" vertex="1" parent="1">
          <mxGeometry x="510" y="160" width="120" height="60" as="geometry" />
        </mxCell>
        <mxCell id="E2FyE6VZy2K_bB3SCXtz-61" style="edgeStyle=orthogonalEdgeStyle;rounded=0;orthogonalLoop=1;jettySize=auto;html=1;exitX=0.5;exitY=1;exitDx=0;exitDy=0;entryX=0.5;entryY=0;entryDx=0;entryDy=0;" edge="1" parent="1" source="E2FyE6VZy2K_bB3SCXtz-55" target="E2FyE6VZy2K_bB3SCXtz-21">
          <mxGeometry relative="1" as="geometry" />
        </mxCell>
        <mxCell id="E2FyE6VZy2K_bB3SCXtz-55" value="Pump OFF" style="whiteSpace=wrap;html=1;" vertex="1" parent="1">
          <mxGeometry x="510" y="240" width="120" height="60" as="geometry" />
        </mxCell>
        <mxCell id="E2FyE6VZy2K_bB3SCXtz-59" value="No" style="text;html=1;align=center;verticalAlign=middle;resizable=0;points=[];autosize=1;strokeColor=none;fillColor=none;" vertex="1" parent="1">
          <mxGeometry x="420" y="240" width="30" height="20" as="geometry" />
        </mxCell>
        <mxCell id="E2FyE6VZy2K_bB3SCXtz-60" value="Yes" style="text;html=1;align=center;verticalAlign=middle;resizable=0;points=[];autosize=1;strokeColor=none;fillColor=none;" vertex="1" parent="1">
          <mxGeometry x="455" y="160" width="40" height="20" as="geometry" />
        </mxCell>
        <mxCell id="E2FyE6VZy2K_bB3SCXtz-65" value="" style="edgeStyle=orthogonalEdgeStyle;rounded=0;orthogonalLoop=1;jettySize=auto;html=1;" edge="1" parent="1" source="E2FyE6VZy2K_bB3SCXtz-62" target="E2FyE6VZy2K_bB3SCXtz-63">
          <mxGeometry relative="1" as="geometry" />
        </mxCell>
        <mxCell id="E2FyE6VZy2K_bB3SCXtz-62" value="Close the valve" style="rounded=0;whiteSpace=wrap;html=1;" vertex="1" parent="1">
          <mxGeometry x="510" y="355" width="120" height="60" as="geometry" />
        </mxCell>
        <mxCell id="E2FyE6VZy2K_bB3SCXtz-69" style="edgeStyle=orthogonalEdgeStyle;rounded=0;orthogonalLoop=1;jettySize=auto;html=1;exitX=0;exitY=0.5;exitDx=0;exitDy=0;entryX=0.5;entryY=0;entryDx=0;entryDy=0;" edge="1" parent="1" source="E2FyE6VZy2K_bB3SCXtz-63" target="E2FyE6VZy2K_bB3SCXtz-50">
          <mxGeometry relative="1" as="geometry" />
        </mxCell>
        <mxCell id="E2FyE6VZy2K_bB3SCXtz-63" value="Pump ON" style="whiteSpace=wrap;html=1;" vertex="1" parent="1">
          <mxGeometry x="510" y="440" width="120" height="60" as="geometry" />
        </mxCell>
        <mxCell id="E2FyE6VZy2K_bB3SCXtz-70" value="No" style="text;html=1;align=center;verticalAlign=middle;resizable=0;points=[];autosize=1;strokeColor=none;fillColor=none;" vertex="1" parent="1">
          <mxGeometry x="415" y="430" width="30" height="20" as="geometry" />
        </mxCell>
        <mxCell id="E2FyE6VZy2K_bB3SCXtz-71" value="Yes" style="text;html=1;align=center;verticalAlign=middle;resizable=0;points=[];autosize=1;strokeColor=none;fillColor=none;" vertex="1" parent="1">
          <mxGeometry x="455" y="575" width="40" height="20" as="geometry" />
        </mxCell>
        <mxCell id="E2FyE6VZy2K_bB3SCXtz-76" style="edgeStyle=orthogonalEdgeStyle;rounded=0;orthogonalLoop=1;jettySize=auto;html=1;exitX=0.5;exitY=1;exitDx=0;exitDy=0;entryX=0;entryY=0.5;entryDx=0;entryDy=0;" edge="1" parent="1" source="E2FyE6VZy2K_bB3SCXtz-72" target="E2FyE6VZy2K_bB3SCXtz-1">
          <mxGeometry relative="1" as="geometry">
            <Array as="points">
              <mxPoint x="414" y="770" />
              <mxPoint x="230" y="770" />
              <mxPoint x="230" y="80" />
            </Array>
          </mxGeometry>
        </mxCell>
        <mxCell id="E2FyE6VZy2K_bB3SCXtz-72" value="Display the values" style="whiteSpace=wrap;html=1;" vertex="1" parent="1">
          <mxGeometry x="354" y="690" width="120" height="60" as="geometry" />
        </mxCell>
        <mxCell id="E2FyE6VZy2K_bB3SCXtz-75" value="No" style="text;html=1;align=center;verticalAlign=middle;resizable=0;points=[];autosize=1;strokeColor=none;fillColor=none;" vertex="1" parent="1">
          <mxGeometry x="380" y="640" width="30" height="20" as="geometry" />
        </mxCell>
      </root>
    </mxGraphModel>
  </diagram>
</mxfile>
